<mxfile host="65bd71144e">
    <diagram id="6bvWZPUksjP_lcZCnk0a" name="Page-1">
        <mxGraphModel dx="990" dy="497" grid="1" gridSize="10" guides="1" tooltips="1" connect="1" arrows="1" fold="1" page="1" pageScale="1" pageWidth="827" pageHeight="1169" math="0" shadow="0">
            <root>
                <mxCell id="0"/>
                <mxCell id="1" parent="0"/>
                <mxCell id="29" value="&lt;font style=&quot;font-size: 18px;&quot; color=&quot;#000000&quot;&gt;&lt;u&gt;DWA Sysytem architecture&lt;/u&gt;&lt;/font&gt;" style="rounded=0;whiteSpace=wrap;html=1;fontSize=12;verticalAlign=top;align=left;labelBackgroundColor=none;fillColor=#d0cee2;strokeColor=#56517e;" parent="1" vertex="1">
                    <mxGeometry x="60" y="160" width="660" height="400" as="geometry"/>
                </mxCell>
                <mxCell id="2" value="&lt;span style=&quot;font-size: 20px;&quot;&gt;&lt;b&gt;arcanain simulator&lt;/b&gt;&lt;/span&gt;" style="rounded=1;whiteSpace=wrap;html=1;align=center;verticalAlign=top;labelBackgroundColor=default;" parent="1" vertex="1">
                    <mxGeometry x="140" y="200" width="190" height="310" as="geometry"/>
                </mxCell>
                <mxCell id="3" value="&lt;span style=&quot;font-size: 20px;&quot;&gt;&lt;b&gt;dwa planner&lt;/b&gt;&lt;/span&gt;" style="rounded=1;whiteSpace=wrap;html=1;align=center;verticalAlign=top;labelBackgroundColor=default;" parent="1" vertex="1">
                    <mxGeometry x="460" y="200" width="180" height="310" as="geometry"/>
                </mxCell>
                <mxCell id="7" style="edgeStyle=none;html=1;exitX=0.25;exitY=1;exitDx=0;exitDy=0;fontSize=20;entryX=0.25;entryY=0;entryDx=0;entryDy=0;" parent="1" source="4" target="5" edge="1">
                    <mxGeometry relative="1" as="geometry"/>
                </mxCell>
                <mxCell id="4" value="&lt;span style=&quot;font-family: &amp;quot;trebuchet ms&amp;quot;, verdana, arial, sans-serif; font-size: 16px; text-align: start;&quot;&gt;DWAPlannerNode&lt;/span&gt;" style="rounded=0;whiteSpace=wrap;html=1;fontSize=20;" parent="1" vertex="1">
                    <mxGeometry x="470" y="250" width="160" height="60" as="geometry"/>
                </mxCell>
                <mxCell id="5" value="&lt;div style=&quot;text-align: start;&quot;&gt;&lt;font face=&quot;trebuchet ms, verdana, arial, sans-serif&quot;&gt;&lt;span style=&quot;font-size: 16px;&quot;&gt;DWA&lt;/span&gt;&lt;/font&gt;&lt;/div&gt;" style="rounded=0;whiteSpace=wrap;html=1;fontSize=20;" parent="1" vertex="1">
                    <mxGeometry x="470" y="430" width="160" height="60" as="geometry"/>
                </mxCell>
                <mxCell id="8" style="edgeStyle=none;html=1;fontSize=20;entryX=0.75;entryY=1;entryDx=0;entryDy=0;exitX=0.75;exitY=0;exitDx=0;exitDy=0;" parent="1" source="5" target="4" edge="1">
                    <mxGeometry relative="1" as="geometry">
                        <mxPoint x="520" y="340" as="sourcePoint"/>
                        <mxPoint x="520" y="430" as="targetPoint"/>
                    </mxGeometry>
                </mxCell>
                <mxCell id="22" value="v, w" style="edgeLabel;html=1;align=center;verticalAlign=middle;resizable=0;points=[];fontSize=12;" parent="8" vertex="1" connectable="0">
                    <mxGeometry x="-0.1667" y="2" relative="1" as="geometry">
                        <mxPoint y="-10" as="offset"/>
                    </mxGeometry>
                </mxCell>
                <mxCell id="9" value="&lt;div style=&quot;text-align: start;&quot;&gt;&lt;font face=&quot;trebuchet ms, verdana, arial, sans-serif&quot;&gt;&lt;span style=&quot;font-size: 16px;&quot;&gt;odometory pub&amp;nbsp;&lt;/span&gt;&lt;/font&gt;&lt;/div&gt;" style="rounded=0;whiteSpace=wrap;html=1;fontSize=20;" parent="1" vertex="1">
                    <mxGeometry x="155" y="250" width="160" height="60" as="geometry"/>
                </mxCell>
                <mxCell id="10" value="&lt;div style=&quot;text-align: start;&quot;&gt;&lt;font face=&quot;trebuchet ms, verdana, arial, sans-serif&quot;&gt;&lt;span style=&quot;font-size: 16px;&quot;&gt;obstacle pub&amp;nbsp;&lt;/span&gt;&lt;/font&gt;&lt;/div&gt;" style="rounded=0;whiteSpace=wrap;html=1;fontSize=20;" parent="1" vertex="1">
                    <mxGeometry x="155" y="340" width="160" height="60" as="geometry"/>
                </mxCell>
                <mxCell id="11" value="&lt;div style=&quot;text-align: start;&quot;&gt;&lt;font face=&quot;trebuchet ms, verdana, arial, sans-serif&quot;&gt;&lt;span style=&quot;font-size: 16px;&quot;&gt;waypoint pub&amp;nbsp;&lt;/span&gt;&lt;/font&gt;&lt;/div&gt;" style="rounded=0;whiteSpace=wrap;html=1;fontSize=20;" parent="1" vertex="1">
                    <mxGeometry x="155" y="430" width="160" height="60" as="geometry"/>
                </mxCell>
                <mxCell id="12" value="" style="endArrow=classic;html=1;fontSize=12;exitX=1;exitY=0.5;exitDx=0;exitDy=0;entryX=0;entryY=0.5;entryDx=0;entryDy=0;" parent="1" source="9" target="4" edge="1">
                    <mxGeometry relative="1" as="geometry">
                        <mxPoint x="520" y="260" as="sourcePoint"/>
                        <mxPoint x="620" y="260" as="targetPoint"/>
                    </mxGeometry>
                </mxCell>
                <mxCell id="17" value="" style="edgeStyle=elbowEdgeStyle;elbow=horizontal;endArrow=classic;html=1;curved=0;rounded=0;endSize=8;startSize=8;fontSize=20;exitX=1;exitY=0.5;exitDx=0;exitDy=0;entryX=0;entryY=0.75;entryDx=0;entryDy=0;" parent="1" source="10" target="4" edge="1">
                    <mxGeometry width="50" height="50" relative="1" as="geometry">
                        <mxPoint x="540" y="310" as="sourcePoint"/>
                        <mxPoint x="590" y="260" as="targetPoint"/>
                        <Array as="points">
                            <mxPoint x="430" y="340"/>
                        </Array>
                    </mxGeometry>
                </mxCell>
                <mxCell id="18" value="" style="edgeStyle=elbowEdgeStyle;elbow=horizontal;endArrow=classic;html=1;curved=0;rounded=0;endSize=8;startSize=8;fontSize=20;exitX=1;exitY=0.5;exitDx=0;exitDy=0;entryX=0;entryY=1;entryDx=0;entryDy=0;" parent="1" source="11" target="4" edge="1">
                    <mxGeometry width="50" height="50" relative="1" as="geometry">
                        <mxPoint x="325" y="380" as="sourcePoint"/>
                        <mxPoint x="480" y="305" as="targetPoint"/>
                        <Array as="points">
                            <mxPoint x="440" y="350"/>
                        </Array>
                    </mxGeometry>
                </mxCell>
                <mxCell id="19" value="/local obstacle&lt;br style=&quot;font-size: 12px;&quot;&gt;markers" style="text;html=1;strokeColor=none;fillColor=none;align=center;verticalAlign=middle;whiteSpace=wrap;rounded=0;fontSize=12;fontColor=#000000;" parent="1" vertex="1">
                    <mxGeometry x="354" y="330" width="60" height="30" as="geometry"/>
                </mxCell>
                <mxCell id="21" value="/waypoint" style="text;html=1;strokeColor=none;fillColor=none;align=center;verticalAlign=middle;whiteSpace=wrap;rounded=0;fontSize=12;fontColor=#000000;" parent="1" vertex="1">
                    <mxGeometry x="354" y="430" width="60" height="30" as="geometry"/>
                </mxCell>
                <mxCell id="25" value="" style="edgeStyle=segmentEdgeStyle;endArrow=classic;html=1;curved=0;rounded=0;endSize=8;startSize=8;fontSize=12;exitX=1;exitY=0.5;exitDx=0;exitDy=0;entryX=0;entryY=0.5;entryDx=0;entryDy=0;" parent="1" source="4" target="9" edge="1">
                    <mxGeometry width="50" height="50" relative="1" as="geometry">
                        <mxPoint x="530" y="390" as="sourcePoint"/>
                        <mxPoint x="580" y="340" as="targetPoint"/>
                        <Array as="points">
                            <mxPoint x="690" y="280"/>
                            <mxPoint x="690" y="540"/>
                            <mxPoint x="100" y="540"/>
                            <mxPoint x="100" y="280"/>
                        </Array>
                    </mxGeometry>
                </mxCell>
                <mxCell id="26" value="/cmd_vel" style="text;html=1;strokeColor=none;fillColor=none;align=center;verticalAlign=middle;whiteSpace=wrap;rounded=0;fontSize=12;fontColor=#000000;" parent="1" vertex="1">
                    <mxGeometry x="354" y="510" width="60" height="30" as="geometry"/>
                </mxCell>
                <mxCell id="28" value="/odom" style="text;html=1;strokeColor=none;fillColor=none;align=center;verticalAlign=middle;whiteSpace=wrap;rounded=0;fontSize=12;fontColor=#000000;" parent="1" vertex="1">
                    <mxGeometry x="354" y="250" width="60" height="30" as="geometry"/>
                </mxCell>
            </root>
        </mxGraphModel>
    </diagram>
</mxfile>